<?xml version="1.0" encoding="UTF-8"?>
<svg xmlns="http://www.w3.org/2000/svg" xmlns:xlink="http://www.w3.org/1999/xlink" width="350" height="460">
<g id="Crown">
<path d="M247.6,45l10.5-29.5c-12.9-4.6-25.8-8.2-38.7-10.4l-17.7,16.7l-2.6,20.8c-0.8-0.1-1.7-0.2-2.5-0.3l1.9-8.9l3.2-30.9
c-17.8-1.9-35.6-1.9-53.4,0l3.2,30.9l1.9,8.9c-0.8,0.1-1.7,0.2-2.5,0.3l-2.6-20.8L130.7,5c-13,2.2-25.9,5.8-38.7,10.4L102.4,45
l11.8,6.6l6.9,22.6c-2.8,0.8-5.5,1.7-8.3,2.7l5.5,15.2h113.3l5.5-15.2c-2.7-1-5.5-1.9-8.2-2.7l6.9-22.6L247.6,45z"/>
<g id="BrL">
<g fill="#f5f5f5">
<path d="M108.4,25.8l-3.7-12.5c-3.4,1-6.8,2.1-10.2,3.4l4.3,12.2C102.1,27.8,105.3,26.7,108.4,25.8z"/>
<path d="M110.3,25.2c7.5-2.2,14.6-3.9,21.6-5.2l-2.4-12.8c-7.5,1.4-15.2,3.2-22.9,5.5L110.3,25.2z"/>
<path d="M120.6,24.5c-6.7,1.7-13.7,3.7-21.1,6.3l4.3,12.2c6.4-2.3,13.1-4.2,19.8-5.8L120.6,24.5z"/>
<path d="M122.5,24l3,12.7c3-0.7,6.1-1.4,9.1-1.9L132.3,22C129.1,22.6,125.8,23.3,122.5,24z"/>
<path d="M133.7,57.9l-2.1-10.3c-5.2,1.1-10.3,2.5-15.3,4l3,10C124.1,60.2,128.9,59,133.7,57.9z"/>
<path d="M135.7,57.5c6-1.2,12-2.2,18.1-2.9l-1.1-10.4c-6.5,0.7-12.9,1.7-19.1,3L135.7,57.5z"/>
<path d="M174,43c-6.5,0.1-13,0.4-19.3,1l1.1,10.4c6.1-0.6,12.1-0.9,18.2-0.9V43z"/>
<path d="M127.2,72.5l-2.7-10.2c-1.5,0.4-3,0.8-4.5,1.3l3.1,10.1C124.4,73.2,125.8,72.9,127.2,72.5z"/>
<path d="M145.7,68.4L144.2,58c-6,1-11.9,2.2-17.8,3.8l2.7,10.2C134.7,70.5,140.2,69.4,145.7,68.4z"/>
<path d="M164.5,66.3L164,55.8c-6,0.3-11.9,1-17.8,1.9l1.5,10.4C153.3,67.2,158.9,66.7,164.5,66.3z"/>
</g>
<g fill="#ccc">
<polygon points="134.6,11.5 131.9,8.9 134,20.3 136.4,22.3"/>
<polygon points="138.8,24.3 147.6,31.9 146.4,22.6 137,13.7"/>
<path d="M147.2,42.9c0.6-0.1,1.2-0.2,1.8-0.2l-1-7.9l-13.4-11.4l2.1,11.6L147.2,42.9z"/>
<path d="M124.6,39c-6.2,1.5-12.5,3.4-18.9,5.5l9.6,5.4l0.3,0c6.1-1.8,12.1-3.3,18.2-4.6L124.6,39z"/>
<path d="M136.5,44.7c2.6-0.5,5.3-1,7.9-1.4l-8.8-6.7c-2.7,0.5-5.5,1.1-8.3,1.7L136.5,44.7z"/>
</g>
</g>
<use xlink:href="#BrL" transform="scale(-1 1)" x="-350"/>
<g fill="#f5f5f5">
<path d="M161.9,16.4l-0.7-13c-3.6,0.2-7.2,0.5-10.7,0.8l1.4,12.9C155.2,16.8,158.6,16.6,161.9,16.4z"/>
<path d="M163.9,16.3c11.4-0.5,22.8-0.2,34.2,0.9l1.4-12.9c-12-1.2-24.2-1.5-36.3-0.9L163.9,16.3z"/>
<path d="M186,18.3c-11.3-0.5-22.6-0.2-33.9,0.9l1.4,12.9c10.9-1,21.5-1.4,31.9-0.8L186,18.3z"/>
<path d="M188,18.4l-0.7,13c3,0.2,6.1,0.4,9.3,0.7l1.4-12.9C194.6,18.8,191.3,18.6,188,18.4z"/>
<path d="M183.5,66.2l0.5-10.5c-6-0.3-12-0.3-18,0l0.5,10.5C172.2,65.9,177.8,65.9,183.5,66.2z"/>
<path d="M115.4,78.2l4.3,12h110.5l4.3-12C194.9,64.6,155.2,64.6,115.4,78.2z"/>
</g>
<g fill="#ccc">
<path d="M185.1,33.2c-10.5-0.5-20.9-0.2-31.4,0.8l1.7,7.9c9.6-0.9,19.2-1.1,28.8-0.7L185.1,33.2z"/>
<path d="M187.1,33.4l-0.8,8c2.8,0.1,5.5,0.3,8.3,0.6l1.7-7.9C193.2,33.7,190.2,33.5,187.1,33.4z"/>
</g>
</g>

<g id="Cartouche">
<g id="Base">
<path d="M331.2,290.3c-7.9-18.5-10.4-25.4-10.5-34.7L190.3,77.9c-10.2-2.7-20.4-2.7-30.5,0L29.3,255.6
c-0.1,9.4-2.6,16.3-10.5,34.7c-8.2,19.2,1.4,56.5,14.3,66.6c2,4.3,5,8.2,9.3,11.3c1.8,2.2,4.1,4.3,7,6.1c2.7,3.4,6.2,6,10.3,7.9
c3.9,4.6,10.3,8.8,20.6,13c23.8,9.8,53.7,20.7,65.4,47.5c2-2.2,5.2-3.8,8.4-4.7c0.2,3.1,2.9,7.2,4.6,9.1c1.2-0.6,3.2-2.7,4-4.2
c1.4,7,5.9,13.6,12.1,16.1c6.1-2.5,10.7-9.1,12.1-16.1c0.8,1.6,2.8,3.6,4,4.2c1.6-1.9,4.3-6,4.6-9.1c3.2,0.9,6.4,2.5,8.4,4.7
c11.7-26.8,41.6-37.7,65.4-47.5c10.3-4.3,16.7-8.5,20.6-13c4.2-1.9,7.6-4.6,10.3-7.9c2.9-1.8,5.2-3.9,7-6.1
c4.3-3.1,7.3-7,9.3-11.3C329.8,346.8,339.4,309.5,331.2,290.3z"/>
<path id="BsL" d="M149.2,75.9c-10,0-40.1,11.7-50.5,16.4c-8.9,4-17.2,6.7-24,1.5c-3.8-2.9-2.5-9.5-1.4-11.3s1.2-4.7-2.3-4.6
s-7.7,3.8-9.9,8.5C54.4,75.2,38.3,77,35,92.7c-1,0.8-1.9,1.6-2.8,2.4c-6,5.4-10.5,9.7-17.5,11c-7.2,0.5-12.7,7.3-12.7,13.3
c0,8.6,4.4,13.5,12.1,13.5c2.5,0,4.8-1,6.6-2.7l0,0c2.2-2.2,3.4-3.4,5.1-4.3c2.3,10.7,4.7,33.1,5.6,48.7c-0.6-0.6-1.3-1.1-2.1-1.6
c-3.6-2.2-6-5.9-6-10.6c-3.1,0-10.6,5-5.1,13.5c-4.8,0.7-6.4,5.1-6.4,7.3c0,3.9,2.4,8,6.8,8c2.6,0,6-2.7,5.1-6.5
c2.4,1.5,4.1,3.6,5,6.3c-1.6-0.4-5.9-1.1-7.6,5.1c1.2,0,7.2,2,7.2,8.4c0,2.2-0.6,4.4-1.8,6.3c-1.5-2.2-2.7-4.8-3.8-8.1l0,0
c-1.3-4.3-5.1-7.3-10-7.3c-5.7,0-11.4,4.1-11.4,12c0,6.5,3.9,13,12.5,14.7c1.9,1.9,7.4,8.7,8.7,14.4c0.4,1.8,1.2,3.9,2.3,6
c-3.9,10.3,7.1,18.6,15.7,16.3l129.5-166C169.9,89.9,168.9,75.9,149.2,75.9z"/>
<use xlink:href="#BsL" transform="scale(-1 1)" x="-350"/>
</g>
<g id="Color">
<path fill="#f9e098" d="M182.3,428.2c0,6.6-2.3,12.3-7.3,14.8c-5-2.5-7.3-8.1-7.3-14.8l-5,4.8l0.8,3.8c1.6,10,5.5,17.5,11.5,19.9
c6-2.4,9.9-9.9,11.5-19.9l0.8-3.8L182.3,428.2z"/>
<path fill="#be8c32" d="M184.7,108c-3.9-0.7-5.7-2.2-6.6-3.5c-0.2,1.4-1.8,3.6-3.1,4.3c-1.3-0.7-2.8-2.9-3.1-4.3
c-0.9,1.3-2.7,2.8-6.6,3.5l0,310.6l4.3,5.6c0,7.8,1.2,14.3,5.4,16.5c4.2-2.2,5.4-8.7,5.4-16.5l4.3-5.6L184.7,108z"/>
<path fill="#be8c32" d="M169.9,92.7c0,2.8-0.6,5.3-1.6,7.4c-0.2,1.9-0.1,3.8,0.3,4.7c1.4-0.9,2.4-1.5,4.1-4.8
c0.3,1.9,0.8,4.7,2.3,6.4c1.4-1.7,2-4.5,2.3-6.4c1.7,3.3,2.8,4,4.1,4.8c0.4-0.9,0.5-2.8,0.3-4.7c-1-2.1-1.6-4.7-1.6-7.4
c0-1.9,0.5-9.1,7.1-13.5c-3.8-0.9-7.8-1.4-12.3-1.4s-8.5,0.5-12.3,1.4C169.4,83.6,169.9,90.8,169.9,92.7z"/>
<g id="ClL">
<g fill="#be8c32">
<path d="M155.4,430.1c-3.8-4.9-14.6-16.6-22.6-20.4c-7.5-3.6-32-11.8-42.4-21.6c-5.8-5.4-16.8-25-19.8-28.7
c-2.6-3.1-6.8-4.1-9.5-7c-1.7,2.1-2.5,4.5-1.2,7.7c-2.7,1.2-2,5.7,0.3,8s3,3.6,1.7,3.2c-2.6-0.9-5.3-6.4-3.8-13
c1.8-7.7,0.8-13.7-1.7-16.9c-3.1,0.4-3.8,2.8-3.6,4.5c0.2,1.7-0.9,2.6-1.2,0.4c-0.3-2.2,2.7-8.1,3.5-10.7c0.8-2.9-1.6-9.6-1.3-11.7
c-1.5-1.1-4.2,0-5.5,2.8c-2-2.5-4.3-2.1-6.9,0.3c0,0,2.5,1.4,2.1,2.8s-2.6,2.4-3.6-0.1c-1.1-3,6.3-13.2,8.2-19.4
c2-6.4-2.5-21-0.9-26.7c-6.9-0.6-11.6,5-10.8,9.1c0.4,2.4,0.1,3.7-0.8,4.7c-0.9,1-2-1.5-1.2-3.5c-5.5,0.1-5.7,5.9-5.4,7.8
s-0.2,3.2-0.8,2.1c-0.7-1.3,0-8,4.8-11.6c4.9-3.7,11.4-14,6.4-17.9c-0.2,0.5-3.9,3.3-3.9-0.1c0-3.9,7.7-7,4-10.6c-1,1-2.4,1.3-3,0.1
c-0.5-1.1,1.1-3.1,1.2-4.7c2.7-0.1,5.2-1.1,7.3-3.1c-7.9,5.2-20.9-1.2-18.9-11.1c4.3,6.5,11.4,11.4,18.1,2.9
c-10.5,9.4-18.1-5-19.8-11.3c-1.6-5.8-5.4-11.2-8.1-14.1c0.6,0,1.2,0.1,1.8,0.1c11.9,0,23.2-14.4,24.9-26.9c0.5-3.8,0.7-6.8,0.9-9.4
c0.4-5.7,0.4-9.1,4.8-15.9c-4-0.4-6.8,0.3-8.7,1.6c-1.4-18.6-4.9-45.9-7.8-53c-2.9-6.9-7-10.9-12.4-12.3c5.7-2.3,9.6-6.5,13.6-10
c10.1-8.8,15.4-9.4,23.1-3.7c-6.8-7.5-13.4-5.8-19-2.1c5.3-14.9,20.4-10.1,23.8,0c2-6.1,6.2-10.1,9.1-10.7s1.2,1.2,0.7,1.6
c-0.5,0.5-9.3,8.8-2.8,15.9c2.6,2.9,4.1,5.6-1.3,5.6c4.8,7.4,11.3,3,17,1.3c5.7-1.7,3,1.8,1.3,2.8c7.1,3.7,16.9-4.5,20.3-4.8
c3-0.3,1.8,1.6-0.7,3.4c6.8,5.8,15.7-3.1,23.4-9.7c-0.5,1.7-1.3,4.3,0.1,6.7c2.9,4.8,13.2,5.7,17.6-0.2c-3-2.2-3.7-3.9-3.7-6.9
c0-3.8,3.6-6.6,8.3-7.4c-2.6,1.9-4.1,5-4.1,9.2c0,6.1,4.3,9.9,10.5,9.9c3.6,0,6.7-1.5,8.9-4c0.2,1.7,0.8,3.8,2.5,4.7l1.7,318.7
C166.6,425.3,161.3,426.8,155.4,430.1z"/>
<path d="M25.2,123.9c-0.5-2.1-1-3.5-1.5-3.9c0.4,1.7,0.3,3.3,0,4.9C24.1,124.5,24.6,124.2,25.2,123.9z"/>
<path d="M25.1,212.4c-0.9-1.2-1.7-2.6-2.4-4.1c-1.1,4.4-5.1,6.7-8,6.3C19.3,215.7,22.8,214.6,25.1,212.4z"/>
</g>
<g fill="#f9e098">
<path d="M160.9,94.3c0-4.7-5.3-6.6-8.3-4.8c-2.3,1.5-3.9,3.9-3.9,8c0,5.1,3.5,7.9,8.5,7.9c6.2,0,10.6-5.2,10.6-12.7
c0-3.5-1.3-14.8-18.7-14.8c-8.9,0-37.5,10.7-49.6,16.2c-9.4,4.3-17.3,5.9-23.1,3.1s-6.7-7.7-6.1-11.4c-1.9,2.7-3.7,6.9-0.5,10.4
c2.5,2.7,4.7,6.5,0.9,8c3.4,2.8,8.9-0.8,12.9-1.7s7.3,0.2,5.4,3.7c3.5,0.4,8.8-2.4,13.7-4.8c5.3-2.6,8.7,0.1,5.5,4
c4.4,1,11.4-3.8,16.5-8.9c5.1-5,6.7-2.1,5.6,0.4c-0.3,0.7-1.2,3.3,0.4,5.2c1.1,1.3,6.2,4.7,12.6,0.5c-2.7-2.1-2.8-5.7-2.8-7
c0-5.4,5.7-9.5,12.6-9.5c7.6,0,9.7,5.5,9.7,8.2c0,3.5-2.1,6-5.1,6c-1.8,0-4-1.3-4-3.9c0-1,0.7-1.7,1.5-1.7
c0.8,0,1.9,0.9,1.3,2.2C155.8,98.8,160.9,99.3,160.9,94.3z"/>
<path d="M33.4,177.3c1.3,2.4,1.5,4.8,1.5,6.1c0,0.9,0.8,0.9,0.8,0c0-2.7,0.3-6.8,2.6-9.7c-1.3-18.9-5-47.3-7.8-53.9
c-3.3-7.8-8.2-11.7-15-11.7c-6.4,0-11.5,6.2-11.5,11.3c0,5.2,1.7,11.5,10.1,11.5c4.3,0,6.7-3.1,7.5-6.1c0.9-3.1,0-10-6-10
c0,0-4.9,0.1-4.9,5c0,4.5,4.9,4.4,4.2,3c-0.8-1.5,0.4-2.4,1.3-2.4s1.5,0.7,1.5,1.5c0,3-2.7,4.3-4.7,3.9c-2.1-0.4-4.3-2.7-4.3-6
c0-5.1,4.1-7,6.9-7c2.8,0,8.2,1.7,10.9,8.3C28.9,126.8,32.5,158.6,33.4,177.3z"/>
<path d="M37.7,183.4c0,4.3-4.8,4.5-4.8,0c0-1.4-0.3-6-4.7-8.7c-3.8-2.3-6.2-5.9-6.7-9.8c-5.6,3.3-2.9,9.3-0.3,12.3
c-5.8,0-7.4,3.8-7.4,5.9c0,3,1.6,6,4.8,6c1.9,0,5.5-2.7,1.8-7.4c4.5-0.4,10.5,5,11.1,12.2c-1.6-0.8-6.1-2.9-7.8,0.8
c2.1,0.9,6.6,3.6,6.6,9.7c0,7.3-5.1,12.6-12.2,12.6c-6.3,0-11-3.9-11-9.3c0-3.5,2-5.9,5-5.9c1.6,0,4.1,1.5,4.1,4.1
c0,2.2-1.4,2.9-1.9,2.9c-0.8,0-1.5-0.7-1.5-1.5c0-0.8,1.1-0.9,1.1-1.8s-0.8-1.7-1.8-1.7c-2,0-3,2-3,3.9c0,4.4,4.3,4.9,6.1,4.9
c2.5,0,5.9-2.1,5.9-6.9c0-4.8-3.6-8.3-8.5-8.3c-4.5,0-9.4,3.1-9.4,10c0,6,3.9,13.1,15,13.1c10.8,0,21.4-13.8,23-25.1
c0.5-3.7,0.7-6.7,0.9-9.3c0.3-5.2,0.6-8.9,3.3-13.8C43.4,172.4,37.7,172.8,37.7,183.4z"/>
<path d="M155,433c-7.7-10.5-18.7-19.2-23.1-21.5c-8-4.1-31.4-11.2-43-22c-6.3-5.9-18-26.6-19.9-28.8
s-5.7-3.9-7.8-5.4c-0.7,2.3,0,3.9,1.1,5.4c-2.9,0.9-2.3,4.4-0.7,6c4,4.2,3.3,7.2-0.3,6.4c-3.9-0.9-7-7.9-5.2-15.4
c1.5-6.4,1.1-10.8-0.6-14.1c-0.1,0.1-1,0.3-0.8,2.6c0.3,2.8-3.3,5.4-4.7,1.6c-1.6-4.3,2.6-9.4,3.2-12.7c0.6-3-1.6-8.6-1-9.6
c-1.6,0.4-2.6,2.1-3.4,4.1c-1.5-1.9-3-3.1-4.2-2.5c1.2,1.7,1.4,2.8,0.2,4.7c-1.2,1.9-6,2.8-6.8-1.8c-0.9-5.1,6.2-13.2,8.2-20.2
c1.7-6.1-2.3-18.8-1.1-24.3c-1.8,0.1-7.4,2.9-6.8,6.8s-0.8,7.3-3.1,7.3c-2,0-2.8-1.8-2.8-3.2c-1.3,1.2-1.6,2-1.4,5.1
c0.3,5.4-3.6,5.6-4.6,3.1s0-10.1,5.4-14c3.4-2.5,8.1-9.4,7.3-13.8c-0.5,1-5.6,2.5-5.6-2.6c0-3.7,4.9-7.2,5-8.3
c-3.1,1.2-4.3-1.5-3.9-3.2c0.4-2,1.3-2.9,1.2-3.8c-1.5-0.2-3-0.6-4.4-1.3C31,265,27.2,277,20.7,291.1
c-7.5,16.1,0.3,49.6,10.9,61.7c-4.2-14,0.6-31.6,6.6-45.4c-3.4,11.5-13.1,38.5,0.6,54.7c-2.5-6.2-1.9-12.6,1-17.4
c-1.8,5.8-1.8,17.5,6.5,24.5c-3.3-6.9-4-15.7-1.3-25.5c-1.1,12.5-0.2,26.9,12.2,34.9c-2.9-5-3.4-10.5-3.2-17.1
c0.3,13.2,6.8,23.2,27.2,31.8s53.4,19.6,65.4,46.1c2.2-1.9,7.5-3.7,9.7-4c-0.5,3.8,2,7.3,3,8.9c1.6-1.2,3.6-5.5,4.2-7.5l1.6-0.5
l2.5-8.2C162.9,428.5,158.7,430.1,155,433z"/>
</g>
<g fill="#f9e098">
<path d="M172.4,79.3c-1.3-0.7-4.2-0.1-5.1,0.8c-0.9,0.9,0.5,1.6,1.2,2.6c1.3,1.7,1.7,3.2,2.1,5.1c0.1-2.3,0.7-4.4,1.2-5.5C172.1,81.8,173.7,80,172.4,79.3z"/>
<path d="M58,94.6c0.2-9.2-9.2-14.7-17.9-8.9c-1,1.3-1.9,3-2.7,5C45.3,85.4,52,86.8,58,94.6z"/>
<path d="M44.5,90.1c-7.4,2.6-12.4,12.3-21.8,16.4c10.2,3.4,14.8,17.6,17,45.4c-2.7-54,3.5-47.8,22.2-51.6C61.9,100.4,53,87.1,44.5,90.1z"/>
<path d="M18.9,223.7c8.4,1,17.2-8.3,22.8-18.8c-1.5,7.7,4,30,3.1,36.5c-0.7,5.1-6.6,8.9-11.4,6.1C26.4,243.5,27.4,231.5,18.9,223.7z"/>
<path d="M26.1,244.8c0.7,10.2,14,14.4,18.1,2.9C37.5,256.2,30.4,251.3,26.1,244.8z"/>
</g>
<g fill="#be8c32">
<path d="M31.6,352.8c-4.2-14,0.6-31.6,6.6-45.4c-13.6,21.7-8,38.3-17.1,23.2C23.6,339.8,27.4,348,31.6,352.8z"/>
<path d="M38.8,362.1c-2.5-6.2-1.9-12.6,1-17.4c-4.7,6.3-2.4,12.3-5.7,9.5C35.2,357,36.7,359.7,38.8,362.1z"/>
<path d="M45,343.7c-4.6,11.7-0.7,19.6-4.3,17.7c1.2,2.9,3,5.6,5.6,7.8C43,362.3,42.3,353.5,45,343.7z"/>
<path d="M57.2,378.6c-2.9-5-3.4-10.5-3.2-17.1c-1.8,9.2,1.6,13.7-2.6,12C52.9,375.4,54.9,377.1,57.2,378.6z"/>
<path d="M33.4,177.3c1.3,2.4,1.5,4.8,1.5,6.1c0,0.9,0.8,0.9,0.8,0c0-2.7,0.3-6.8,2.6-9.7c0-0.5-0.1-1.1-0.1-1.7c-2,2.6-3.4,2.2-5.2-1.6C33.2,172.9,33.3,175.2,33.4,177.3z"/>
<path d="M18.6,189.1c1.3,0,3.4-1.2,3.4-3.5c-2.7,2.4-5.3,2.7-8.2-2.3C13.9,186.2,15.5,189.1,18.6,189.1z"/>
<path d="M158.5,436.5c0.8,1.4,1.8,1.7,2.7,1.7c-1.3,3.3-2.8,3.1-4.8,0c0.5,2.7,2.1,5,2.9,6.2c1.5-1.2,3.6-5.3,4.4-8.2L158.5,436.5z"/>
<path d="M146.6,439.4c1.6-1.4,4.7-2.7,7.2-3.4c-8-1-13.3-14-25.7-19.1C135.8,422.9,142.5,430.2,146.6,439.4z"/>
</g>
<g>
<path d="M158.5,436.5c-0.6-3.2,0.4-5.1,2.6-5.7c-1.1,1.3-1,2.6-0.9,4c2.3,0.4,4-1,5.1-2.9C165.4,435.3,163.8,437.8,158.5,436.5z"/>
<path d="M68.8,371.8c3.4,5.3-3.3,8.1-6.3,4.9c-0.4-0.4-0.4-1,0-1.4c0.4-0.4,1-0.4,1.4,0C64.9,376,68.8,377.8,68.8,371.8z"/>
<path d="M68.6,379.8c2.3-0.2,3.4-2.6,3.2-4.4C75.2,377.7,70.8,382.1,68.6,379.8z"/>
<path d="M74.3,380.2c-0.2,1.1-1.6,2.9-3.7,2.4C71.5,384.5,75.6,383.3,74.3,380.2z"/>
<path d="M52.8,356.5c-0.3,2.8-3.3,2.8-4.1,2.1c-0.4-0.4-0.6-0.9-0.2-1.4c0.3-0.5,1.1-0.6,1.4-0.2S51.1,358.6,52.8,356.5z"/>
<path d="M54.6,351.4c-1.3,4.1-5.4,2.7-6.2,1.9c-0.4-0.4-0.5-1-0.1-1.4c0.4-0.4,0.9-0.4,1.4-0.1C50.4,352.2,52.1,354.7,54.6,351.4z"/>
<path d="M137.9,83.8c2.2-2.3,5.5-1.4,4.1,2.5C141.8,84.8,140.8,83.1,137.9,83.8z"/>
<path d="M36.8,334.4c-1.1,2.4,3.4,8.4,6.1,2.3C40.3,338.8,37.2,336.3,36.8,334.4z"/>
<path d="M115.4,100.4c-0.3,0.5-0.7,0.8-1.3,0.6c-0.5-0.2-0.9-0.9-0.5-1.5c0.5-1,1.9-4.7-3.8-3.2C115.6,92.7,116.7,98.5,115.4,100.4z"/>
<path d="M136.8,94c-0.3,0.4-0.8,0.7-1.3,0.5c-0.5-0.2-0.7-0.9-0.5-1.4c0.5-1.2,0.8-4.2-5.1-1.7C135.9,86,138.3,91.9,136.8,94z"/>
<path d="M36.2,340.6c-1.4,2.4,2.3,6.4,4.4,1.9C38.6,343.7,36.5,341.9,36.2,340.6z"/>
<path d="M23,308.9c0.5,3.3,4.9,6,9.4,1.7C31.3,315.5,22,316.8,23,308.9z"/>
<path d="M23.2,314.6c0.9,1.9,3.1,3.2,5.8,1.6C28.7,319.9,22.6,319.8,23.2,314.6z"/>
<path d="M28.2,276.7c0.1,2.7,1.2,2.2,3.7,2.6s3.1,3.5,1.7,5.6c-0.1-1.3-0.8-3.7-3.2-3.7C27.9,281.1,26.7,278.4,28.2,276.7z"/>
<path d="M40.7,182.2c1.4,3.1,0,14.7-7,7.3C39.6,193.1,40.4,185,40.7,182.2z"/>
<path d="M39.9,192.2c1.6,2.7-2.1,6.6-5.3,2C36.8,195.1,39.3,195.1,39.9,192.2z"/>
<path d="M92.8,99.7c2.8-2,6.1,2.5,1.5,4.3C95.3,102.2,94.9,100.5,92.8,99.7z"/>
<path d="M115.3,92.9c3.1-1.6,6,1.3,2,3.9C118.1,94.9,117.4,92.8,115.3,92.9z"/>
<path d="M133.4,86.7c1.9-2.5,8.6-1.7,5.6,3.6C138.2,86.3,135.3,85.8,133.4,86.7z"/>
</g>
</g>
<use xlink:href="#ClL" transform="scale(-1 1)" x="-350"/>
<g fill="#f9e098" stroke="#000" stroke-width="2">
<path d="M175,421.1c-2.1,0-2.8,2-2.8,4c0,3.4,1.4,8,2.8,10.2c1.4-2.3,2.8-6.8,2.8-10.2C177.8,423.1,177.1,421.1,175,421.1z"/>
<path d="M175,81.3c-0.9,1-2.6,6.2-2.6,10.3c0,1.8,0.3,5.1,2.6,5.1s2.6-3.3,2.6-5.1C177.6,87.4,175.9,82.2,175,81.3z"/>
</g>
<path fill="#f9e098" d="M179.5,94.8c-0.3,3.6-3,4.7-4.5,4.7c-1.4,0-4.2-1-4.5-4.7c-0.8,2.6-0.9,5-0.8,5.7c0.4,2.1,2.4-1.9,3-1.1
c0.8,1,1.5,4.2,2.2,4.2s1.3-3.2,2.2-4.2c0.6-0.7,2.6,3.2,3,1.1C180.3,99.8,180.2,97.4,179.5,94.8z"/>
<path fill="#be8c32" d="M175,452c-2.9,0-6.7-1.3-10.8-11.8c1.9,8.3,5.5,14.4,10.8,16.5c5.3-2.1,8.9-8.2,10.8-16.5C181.7,450.7,177.9,452,175,452z"/>
</g>
</g>

<g id="Shield">
<defs><g id="COA">
<path d="M2,2 V175 a123 123 0 0 0 246 0 V2 H2" fill="#10679a"/>
<rect width="246" height="70" x="2" y="100" fill="#f5f5f5" stroke="#000" stroke-width="2"/>
</g></defs>
<use xlink:href="#COA" x="50" y="110"/>
<path fill="#f9e098" stroke="#000" stroke-width="2" d="M50,110v175c0,69,56,125,125,125s125-56,125-125V110H50z M295,115v170c0,66.3-53.7,120-120,120S55,351.3,55,285V115H295z"/>
</g>
</svg>